<svg width="69" height="104" viewBox="0 0 69 104" fill="none" xmlns="http://www.w3.org/2000/svg">
<g clip-path="url(#clip0_909_1100)">
<path d="M101 75.75V10.8214C101 4.84484 96.1529 0 90.1786 0H21.6429C9.68969 0 0 9.68969 0 21.6429V93.7857C0 105.739 9.68969 115.429 21.6429 115.429H93.7857C97.7694 115.429 101 112.198 101 108.417C101 105.775 99.5105 103.566 97.3929 102.308V83.9653C99.6022 81.792 101 78.9513 101 75.75V75.75Z" fill="black" fill-opacity="0.1"/>
<path d="M32.2614 28.8571H75.5471C77.7339 28.8571 79.3571 30.4804 79.3571 32.4643C79.3571 34.4482 77.7339 36.0714 75.75 36.0714H32.2614C30.4804 36.0714 28.8571 34.4482 28.8571 32.4643C28.8571 30.4804 30.4804 28.8571 32.2614 28.8571ZM32.2614 43.2857H75.5471C77.7339 43.2857 79.3571 44.9089 79.3571 46.8929C79.3571 48.8768 77.7339 50.5 75.75 50.5H32.2614C30.4804 50.5 28.8571 48.8768 28.8571 46.8929C28.8571 44.9089 30.4804 43.2857 32.2614 43.2857Z" fill="white" fill-opacity="0.1"/>
<path d="M86.5714 101H21.6428C17.6592 101 14.4286 97.7694 14.4286 93.7857C14.4286 89.8021 17.6592 86.5714 21.6428 86.5714H86.5714V101Z" fill="white" fill-opacity="0.1"/>
</g>
<defs>
<clipPath id="clip0_909_1100">
<rect width="101" height="115.429" fill="white"/>
</clipPath>
</defs>
</svg>
