<svg width="300" height="195" viewBox="0 0 300 195" fill="none" xmlns="http://www.w3.org/2000/svg">
<g clip-path="url(#clip0_797_567)">
<path d="M292.878 119.079H282.329C282.104 119.079 281.882 119.029 281.679 118.931C281.475 118.833 281.297 118.691 281.157 118.514C281.019 118.342 280.921 118.141 280.871 117.926C280.822 117.711 280.822 117.487 280.871 117.272C281.862 112.899 281.814 108.355 280.732 104.004C280.648 103.671 280.682 103.319 280.829 103.009C280.975 102.699 281.225 102.449 281.535 102.302C285.941 100.24 289.987 100.293 293.56 102.461C293.748 102.573 293.908 102.725 294.031 102.905C294.154 103.086 294.236 103.291 294.271 103.506C295.029 108.237 295.058 113.055 294.357 117.795C294.308 118.151 294.13 118.478 293.858 118.714C293.586 118.95 293.238 119.08 292.878 119.079Z" fill="#282944"/>
<path d="M292.718 112.168H284.652C284.452 112.168 284.26 112.088 284.118 111.946C283.977 111.804 283.897 111.612 283.897 111.412C283.897 111.211 283.977 111.019 284.118 110.877C284.26 110.736 284.452 110.656 284.652 110.655H292.718C292.918 110.656 293.11 110.736 293.252 110.877C293.393 111.019 293.473 111.211 293.473 111.412C293.473 111.612 293.393 111.804 293.252 111.946C293.11 112.088 292.918 112.168 292.718 112.168Z" fill="white"/>
<path d="M292.718 109.515H284.652C284.452 109.515 284.26 109.435 284.118 109.293C283.977 109.151 283.897 108.959 283.897 108.758C283.897 108.558 283.977 108.366 284.118 108.224C284.26 108.082 284.452 108.002 284.652 108.002H292.718C292.918 108.002 293.11 108.082 293.252 108.224C293.393 108.366 293.473 108.558 293.473 108.758C293.473 108.959 293.393 109.151 293.252 109.293C293.11 109.435 292.918 109.515 292.718 109.515Z" fill="white"/>
<path d="M81.6401 118.022C112.597 118.022 137.692 92.926 137.692 61.9692C137.692 31.0124 112.597 5.91687 81.6401 5.91687C50.6833 5.91687 25.5878 31.0124 25.5878 61.9692C25.5878 92.926 50.6833 118.022 81.6401 118.022Z" fill="#F2F2F2"/>
<path d="M146.648 116.363C152.509 116.363 157.261 111.611 157.261 105.75C157.261 99.888 152.509 95.1362 146.648 95.1362C140.786 95.1362 136.034 99.888 136.034 105.75C136.034 111.611 140.786 116.363 146.648 116.363Z" fill="#F2F2F2"/>
<path d="M200.047 140.243C202.428 140.243 204.358 138.313 204.358 135.932C204.358 133.55 202.428 131.62 200.047 131.62C197.665 131.62 195.735 133.55 195.735 135.932C195.735 138.313 197.665 140.243 200.047 140.243Z" fill="#F2F2F2"/>
<path d="M233.338 152.89C231.519 138.996 222.814 125.35 209.523 120.91C214.845 135.189 214.944 150.89 209.804 165.235C207.801 170.761 204.999 176.698 206.951 182.241C208.166 185.69 211.1 188.316 214.372 189.949C217.644 191.581 221.269 192.346 224.848 193.096L225.555 193.673C231.147 180.824 235.156 166.785 233.338 152.89Z" fill="#F2F2F2"/>
<path d="M209.393 121.174C217.172 129.778 222.041 140.614 223.31 152.143C223.567 154.614 223.613 157.144 223.088 159.585C222.558 161.96 221.401 164.151 219.738 165.928C218.221 167.617 216.474 169.168 215.394 171.196C214.255 173.333 214.226 175.754 215.03 178.011C216.012 180.773 217.929 183.018 219.88 185.147C222.046 187.512 224.333 189.933 225.267 193.08C225.381 193.461 225.966 193.264 225.853 192.883C224.227 187.408 218.882 184.326 216.311 179.401C215.111 177.104 214.597 174.43 215.692 171.99C216.65 169.855 218.45 168.254 220.001 166.558C221.63 164.776 222.875 162.826 223.507 160.477C224.155 158.075 224.208 155.538 224.015 153.071C223.537 147.479 222.182 141.997 220.001 136.827C217.544 130.911 214.094 125.46 209.799 120.708C209.533 120.414 209.129 120.882 209.393 121.174H209.393Z" fill="white"/>
<path d="M223.12 148.406C225.026 147.931 226.7 146.793 227.844 145.197C228.988 143.601 229.528 141.65 229.367 139.693C229.333 139.297 228.716 139.331 228.75 139.728C228.904 141.55 228.401 143.367 227.332 144.851C226.264 146.335 224.7 147.389 222.923 147.821C222.537 147.915 222.736 148.5 223.12 148.406Z" fill="white"/>
<path d="M220.62 165.173C217.16 163.137 214.595 159.872 213.436 156.029C213.321 155.648 212.736 155.846 212.85 156.226C214.064 160.223 216.741 163.616 220.346 165.727C220.69 165.928 220.962 165.373 220.62 165.173Z" fill="white"/>
<path d="M216.975 131.5C216.276 131.837 215.505 131.996 214.729 131.962C213.954 131.927 213.199 131.701 212.533 131.303C212.192 131.098 211.92 131.652 212.258 131.856C212.997 132.293 213.83 132.542 214.687 132.582C215.544 132.622 216.397 132.451 217.173 132.085C217.249 132.057 217.311 132 217.347 131.928C217.383 131.855 217.39 131.771 217.367 131.694C217.34 131.616 217.284 131.553 217.211 131.516C217.137 131.48 217.053 131.474 216.975 131.5V131.5Z" fill="white"/>
<path d="M169.259 146.005C169.468 146.14 169.678 146.274 169.887 146.413C172.692 148.232 175.344 150.275 177.818 152.524C178.012 152.694 178.206 152.87 178.395 153.046C184.297 158.526 189.13 165.054 192.649 172.299C194.047 175.183 195.223 178.169 196.167 181.231C197.472 185.461 198.549 190.15 201.099 193.6C201.361 193.963 201.646 194.31 201.951 194.637L224.796 194.491C224.848 194.465 224.9 194.444 224.952 194.417L225.864 194.453C225.827 194.292 225.784 194.125 225.746 193.964C225.725 193.87 225.698 193.777 225.677 193.683C225.661 193.62 225.645 193.558 225.634 193.501C225.629 193.48 225.623 193.459 225.618 193.443C225.607 193.386 225.591 193.334 225.58 193.282C225.345 192.351 225.103 191.419 224.854 190.488C224.854 190.482 224.854 190.482 224.849 190.477C222.932 183.385 220.406 176.39 216.899 170.001C216.793 169.809 216.688 169.612 216.572 169.419C214.975 166.548 213.146 163.813 211.104 161.24C209.981 159.834 208.787 158.487 207.528 157.202C204.268 153.889 200.507 151.109 196.383 148.965C188.161 144.691 178.665 143.094 169.925 145.793C169.701 145.862 169.483 145.931 169.259 146.005Z" fill="#F2F2F2"/>
<path d="M169.312 146.295C180.703 148.482 191.115 154.202 199.07 162.643C200.763 164.462 202.322 166.454 203.373 168.719C204.38 170.935 204.775 173.38 204.518 175.801C204.323 178.062 203.862 180.353 204.22 182.622C204.598 185.015 206.032 186.964 208.033 188.283C210.48 189.897 213.362 190.535 216.202 191.061C219.355 191.644 222.639 192.201 225.279 194.151C225.599 194.387 225.947 193.877 225.628 193.641C221.033 190.248 214.91 191.006 209.893 188.622C207.551 187.509 205.531 185.685 204.936 183.076C204.416 180.796 204.889 178.433 205.106 176.145C205.334 173.742 205.154 171.435 204.245 169.179C203.315 166.871 201.831 164.814 200.191 162.96C196.443 158.783 192.061 155.222 187.206 152.406C181.683 149.162 175.646 146.887 169.356 145.679C168.966 145.604 168.925 146.221 169.312 146.295Z" fill="white"/>
<path d="M196.668 159.774C197.903 158.247 198.555 156.331 198.508 154.368C198.461 152.405 197.717 150.522 196.41 149.057C196.144 148.761 195.673 149.16 195.938 149.456C197.158 150.818 197.851 152.572 197.891 154.4C197.931 156.228 197.317 158.011 196.158 159.426C195.907 159.734 196.418 160.08 196.668 159.774Z" fill="white"/>
<path d="M204.767 174.667C200.779 175.124 196.765 174.062 193.525 171.691C193.204 171.456 192.856 171.966 193.177 172.201C196.553 174.662 200.732 175.759 204.882 175.274C205.277 175.227 205.161 174.621 204.767 174.667Z" fill="white"/>
<path d="M181.583 149.975C181.228 150.666 180.708 151.257 180.068 151.696C179.428 152.136 178.689 152.409 177.917 152.493C177.521 152.534 177.638 153.141 178.032 153.1C178.884 153.004 179.699 152.7 180.407 152.217C181.115 151.733 181.694 151.083 182.093 150.324C182.137 150.255 182.152 150.173 182.137 150.093C182.122 150.013 182.078 149.942 182.012 149.894C181.944 149.849 181.861 149.831 181.781 149.847C181.701 149.862 181.63 149.908 181.583 149.975H181.583Z" fill="white"/>
<path d="M278.832 98.5889L275.743 68.6843L274.927 56.3765L283.575 54.8129C283.575 54.8129 284.87 63.2739 286.003 68.2392C287.121 73.1389 284.513 97.9324 284.444 98.5863C285.079 99.1542 285.527 99.9015 285.728 100.729C285.929 101.557 285.874 102.427 285.571 103.223C285.267 104.018 284.729 104.703 284.027 105.187C283.326 105.67 282.494 105.929 281.642 105.93C280.79 105.93 279.958 105.672 279.256 105.189C278.554 104.706 278.015 104.022 277.711 103.226C277.406 102.431 277.35 101.561 277.551 100.733C277.751 99.9052 278.198 99.1574 278.832 98.5889Z" fill="#FFB8B8"/>
<path d="M243.495 190.409H239.096L237.003 173.441L243.496 173.441L243.495 190.409Z" fill="#FFB6B6"/>
<path d="M244.617 194.674L230.432 194.673V194.494C230.433 193.03 231.014 191.626 232.05 190.59C233.085 189.555 234.489 188.973 235.954 188.973H235.954L238.545 187.007L243.379 188.973L244.617 188.973L244.617 194.674Z" fill="#2F2E41"/>
<path d="M282.267 190.409H277.868L275.775 173.441L282.268 173.441L282.267 190.409Z" fill="#FFB6B6"/>
<path d="M283.389 194.674L269.204 194.673V194.494C269.204 193.03 269.786 191.626 270.821 190.59C271.857 189.555 273.261 188.973 274.725 188.973H274.725L277.316 187.007L282.151 188.973L283.389 188.973L283.389 194.674Z" fill="#2F2E41"/>
<path d="M275.576 99.5944L279.276 134.745C279.276 134.745 284.202 169.941 283.277 174.797C282.352 179.654 283.508 180.347 283.508 180.347L275.067 179.746C275.067 179.746 275.299 176.74 273.911 175.353C272.524 173.965 273.217 169.802 273.217 169.802L256.844 112.545L246.9 142.608C246.9 142.608 245.282 175.677 245.05 176.14C244.819 176.602 244.125 182.846 244.125 182.846H235.569C235.569 182.846 236.725 179.146 235.106 177.99C233.488 176.833 232.1 177.758 233.488 175.677C234.875 173.596 235.338 171.052 234.875 169.896C234.413 168.74 234.413 164.114 234.413 164.114C234.413 164.114 235.106 101.676 239.038 99.5945C242.969 97.5132 275.576 99.5944 275.576 99.5944Z" fill="#2F2E41"/>
<path d="M258.053 28.4233C263.079 28.4233 267.154 24.3488 267.154 19.3227C267.154 14.2965 263.079 10.222 258.053 10.222C253.027 10.222 248.953 14.2965 248.953 19.3227C248.953 24.3488 253.027 28.4233 258.053 28.4233Z" fill="#FFB8B8"/>
<path d="M285.033 59.5838L276.082 62.7937L273.356 63.7705L271.367 38.3556L278.195 41.9773C278.207 41.9857 278.217 41.9959 278.225 42.0073C279.408 43.3134 280.398 44.782 281.165 46.3684C284.909 53.9814 285.033 59.5838 285.033 59.5838Z" fill="white"/>
<path d="M223.374 96.4419C223.374 96.4419 232.471 68.1773 232.63 67.8384C233.821 58.7902 237.248 54.799 237.762 55.2323L246.607 58.2965C246.607 58.2965 243.976 66.6278 242.195 71.5764C240.493 76.305 228.836 98.1365 228.508 98.7067C228.86 99.4828 228.967 100.347 228.817 101.186C228.666 102.024 228.265 102.797 227.665 103.403C227.066 104.008 226.297 104.417 225.46 104.576C224.623 104.735 223.757 104.636 222.978 104.292C222.198 103.948 221.542 103.376 221.095 102.65C220.647 101.925 220.431 101.081 220.474 100.231C220.517 99.3797 220.817 98.562 221.335 97.8854C221.853 97.2089 222.564 96.7055 223.374 96.4419H223.374Z" fill="#FFB8B8"/>
<path d="M250.856 39.9922C250.856 39.9922 243.198 36.2391 240.228 43.6104C238.282 48.5817 237.361 50.7501 236.063 55.9279C236.063 55.9279 243.869 57.099 246.372 61.5101L250.856 39.9922Z" fill="white"/>
<path d="M278.721 103.426C261.097 107.065 237.74 100.808 237.74 100.808L243.971 73.7999L241.756 45.5358C241.485 42.0794 243.454 38.8394 246.517 37.6913L250.745 36.1074L254.241 31.1031L264.225 31.4307L268.217 36.6844L271.366 38.3555L278.195 41.9772L278.225 41.9922V42.0072L276.082 62.7936L274.79 75.3267C274.79 75.3267 278.715 89.4227 277.91 91.2922C277.104 93.1586 277.804 92.257 278 93.2548C278.195 94.2526 278.793 94.3158 278.883 96.2814C278.977 98.244 278.721 103.426 278.721 103.426Z" fill="white"/>
<path d="M267.926 16.082C267.206 15.3725 268.289 13.4942 268.084 12.5048C267.85 11.3705 266.6 11.3373 266.302 10.218C265.981 9.01398 264.698 8.35851 263.512 7.9769C260.471 7.00399 257.227 6.85539 254.11 7.54628C252.731 7.8831 251.373 8.30149 250.043 8.79924C249.125 9.12232 250.01 8.24315 249.092 8.56624C248.744 8.64369 248.438 8.84714 248.231 9.13733C248.066 9.44937 248.289 9.94841 248.636 9.8852C247.515 10.3794 246.395 10.8737 245.274 11.3679C245.902 12.0263 246.531 12.6848 247.16 13.3432C246.266 13.0889 245.313 14.1543 245.666 15.0139C245.807 15.2853 246.013 15.5181 246.265 15.6924C246.516 15.8666 246.807 15.9771 247.111 16.0142C248.12 16.2106 247.354 17.1713 248.383 17.1526C249.411 17.1339 256.581 15.0261 257.081 15.9249C257.437 16.5649 257.398 17.4126 257.906 17.9399C258.557 18.6145 259.692 18.3678 260.52 17.9286C261.347 17.4894 262.187 16.8858 263.118 16.9911C264.09 17.101 264.825 18.8973 265.064 19.8458C265.304 20.7943 265.153 21.7924 265 22.7587C264.8 24.0278 262.797 25.2969 262.597 26.5659C264.82 27.1809 267.205 25.2244 268.084 21.822C267.997 19.6712 269.458 17.5938 267.926 16.082Z" fill="#2F2E41"/>
<path d="M126.449 134.275C99.6582 134.276 76.3488 114.291 72.9053 87.0325L73.5634 86.9492C76.9644 113.871 99.9899 133.61 126.449 133.611C128.697 133.611 130.943 133.47 133.173 133.187C162.355 129.501 183.098 102.76 179.411 73.5776L180.069 73.4944C183.802 103.039 162.801 130.113 133.256 133.845C130.998 134.131 128.725 134.274 126.449 134.275Z" fill="#3F3D56"/>
<path d="M127.887 145.369H117.339C117.113 145.369 116.891 145.319 116.688 145.221C116.485 145.123 116.307 144.981 116.166 144.804C116.028 144.632 115.93 144.431 115.881 144.216C115.831 144.001 115.831 143.777 115.88 143.562C116.881 139.144 116.822 134.552 115.708 130.162C115.632 129.859 115.653 129.539 115.77 129.249C115.886 128.959 116.091 128.712 116.355 128.545C120.004 126.285 123.978 126.355 128.503 128.762C128.709 128.87 128.887 129.024 129.023 129.213C129.16 129.401 129.25 129.619 129.289 129.848C130.038 134.562 130.064 139.363 129.367 144.085C129.317 144.441 129.14 144.768 128.868 145.004C128.596 145.24 128.247 145.37 127.887 145.369Z" fill="#282944"/>
<path d="M79.7949 88.9846H69.2465C69.0212 88.9851 68.7986 88.9346 68.5956 88.8368C68.3925 88.7389 68.2143 88.5964 68.0742 88.4199C67.9358 88.2479 67.8381 88.0468 67.7886 87.8316C67.739 87.6164 67.7388 87.3928 67.788 87.1776C68.7926 82.7448 68.7295 78.1366 67.6039 73.733C67.5327 73.443 67.5499 73.1384 67.6533 72.8583C67.7567 72.5782 67.9416 72.3355 68.1841 72.1614C73.6081 68.2604 77.8797 68.3736 80.8803 72.4984C81.0155 72.6864 81.1054 72.9032 81.1428 73.1318C81.9445 77.9516 81.9889 82.867 81.2743 87.7005C81.2246 88.0573 81.0474 88.3839 80.7754 88.62C80.5034 88.8561 80.155 88.9856 79.7949 88.9846Z" fill="#CCCCCC"/>
<path d="M122.959 135.469H119.33C119.129 135.468 118.937 135.388 118.796 135.247C118.654 135.105 118.575 134.912 118.575 134.712C118.575 134.512 118.654 134.32 118.796 134.178C118.937 134.036 119.129 133.956 119.33 133.956H122.959C123.159 133.956 123.352 134.035 123.493 134.177C123.635 134.319 123.715 134.511 123.715 134.712C123.715 134.913 123.635 135.105 123.493 135.247C123.352 135.389 123.159 135.469 122.959 135.469Z" fill="white"/>
<path d="M127.395 138.458H119.33C119.129 138.458 118.937 138.378 118.796 138.236C118.654 138.094 118.575 137.902 118.575 137.702C118.575 137.501 118.654 137.309 118.796 137.167C118.937 137.025 119.129 136.945 119.33 136.945H127.395C127.596 136.945 127.788 137.025 127.929 137.167C128.071 137.309 128.15 137.501 128.15 137.702C128.15 137.902 128.071 138.094 127.929 138.236C127.788 138.378 127.596 138.458 127.395 138.458Z" fill="white"/>
<path d="M76.5246 78.4213H72.896C72.6956 78.4209 72.5035 78.341 72.362 78.1992C72.2205 78.0574 72.141 77.8652 72.141 77.6648C72.141 77.4644 72.2205 77.2722 72.362 77.1304C72.5035 76.9885 72.6956 76.9086 72.896 76.9082H76.5246C76.725 76.9086 76.917 76.9885 77.0586 77.1304C77.2001 77.2722 77.2796 77.4644 77.2796 77.6648C77.2796 77.8652 77.2001 78.0574 77.0586 78.1992C76.917 78.341 76.725 78.4209 76.5246 78.4213Z" fill="white"/>
<path d="M76.5246 81.0747H72.896C72.6956 81.0742 72.5035 80.9944 72.362 80.8525C72.2205 80.7107 72.141 80.5185 72.141 80.3181C72.141 80.1177 72.2205 79.9255 72.362 79.7837C72.5035 79.6418 72.6956 79.5619 72.896 79.5615H76.5246C76.725 79.5619 76.917 79.6418 77.0586 79.7837C77.2001 79.9255 77.2796 80.1177 77.2796 80.3181C77.2796 80.5185 77.2001 80.7107 77.0586 80.8525C76.917 80.9944 76.725 81.0742 76.5246 81.0747Z" fill="white"/>
<path d="M76.5246 83.728H72.896C72.6956 83.7276 72.5035 83.6477 72.362 83.5058C72.2205 83.364 72.141 83.1718 72.141 82.9714C72.141 82.771 72.2205 82.5788 72.362 82.437C72.5035 82.2952 72.6956 82.2153 72.896 82.2148H76.5246C76.725 82.2153 76.917 82.2952 77.0586 82.437C77.2001 82.5788 77.2796 82.771 77.2796 82.9714C77.2796 83.1718 77.2001 83.364 77.0586 83.5058C76.917 83.6477 76.725 83.7276 76.5246 83.728Z" fill="white"/>
<path d="M221.764 101.446H188.044C187.141 101.445 186.274 101.086 185.635 100.447C184.996 99.808 184.637 98.9417 184.636 98.038V77.2701C184.637 76.3664 184.996 75.5 185.635 74.861C186.274 74.222 187.141 73.8626 188.044 73.8616H221.764C222.667 73.8626 223.534 74.222 224.173 74.861C224.812 75.5 225.171 76.3664 225.172 77.2701V98.038C225.171 98.9417 224.812 99.808 224.173 100.447C223.534 101.086 222.667 101.445 221.764 101.446Z" fill="#E6E6E6"/>
<path d="M208.367 98.7715H190.415C189.568 98.7705 188.757 98.4339 188.158 97.8355C187.56 97.237 187.223 96.4256 187.222 95.5793V79.7288C187.223 78.8824 187.56 78.071 188.158 77.4726C188.757 76.8742 189.568 76.5376 190.415 76.5366H219.394C220.24 76.5376 221.051 76.8742 221.65 77.4726C222.248 78.0711 222.585 78.8825 222.586 79.7288V84.5524C222.581 88.3223 221.082 91.9365 218.416 94.6021C215.751 97.2678 212.136 98.7672 208.367 98.7715Z" fill="white"/>
<path d="M216.503 85.216H193.305C193.105 85.216 192.912 85.1363 192.771 84.9944C192.629 84.8525 192.549 84.6601 192.549 84.4594C192.549 84.2588 192.629 84.0663 192.771 83.9245C192.912 83.7826 193.105 83.7029 193.305 83.7029H216.503C216.703 83.7029 216.896 83.7826 217.038 83.9245C217.18 84.0663 217.259 84.2588 217.259 84.4594C217.259 84.6601 217.18 84.8525 217.038 84.9944C216.896 85.1363 216.703 85.216 216.503 85.216Z" fill="#282944"/>
<path d="M196.934 88.2054H193.305C193.105 88.205 192.913 88.1251 192.772 87.9833C192.63 87.8414 192.55 87.6492 192.55 87.4488C192.55 87.2485 192.63 87.0563 192.772 86.9144C192.913 86.7726 193.105 86.6927 193.305 86.6923H196.934C197.135 86.6927 197.327 86.7726 197.468 86.9144C197.61 87.0563 197.689 87.2485 197.689 87.4488C197.689 87.6492 197.61 87.8414 197.468 87.9833C197.327 88.1251 197.135 88.205 196.934 88.2054Z" fill="#282944"/>
<path d="M203.361 91.1949H193.305C193.105 91.1949 192.912 91.1152 192.77 90.9733C192.629 90.8314 192.549 90.639 192.549 90.4383C192.549 90.2377 192.629 90.0452 192.77 89.9034C192.912 89.7615 193.105 89.6818 193.305 89.6818H203.361C203.562 89.6818 203.754 89.7615 203.896 89.9034C204.038 90.0452 204.117 90.2377 204.117 90.4383C204.117 90.639 204.038 90.8314 203.896 90.9733C203.754 91.1152 203.562 91.1949 203.361 91.1949Z" fill="#282944"/>
<path d="M183.459 80.5809C187.399 80.5809 190.592 77.3873 190.592 73.4479C190.592 69.5085 187.399 66.3149 183.459 66.3149C179.52 66.3149 176.326 69.5085 176.326 73.4479C176.326 77.3873 179.52 80.5809 183.459 80.5809Z" fill="#3F3D56"/>
<path d="M102.714 19.187C103.186 16.7902 104.126 14.5099 105.479 12.4762C106.833 10.4426 108.574 8.69544 110.602 7.33455C114.699 4.58611 119.72 3.5778 124.561 4.53145C126.958 5.00365 129.238 5.9433 131.272 7.29677C133.305 8.65023 135.052 10.391 136.413 12.4197C137.774 14.4484 138.722 16.7252 139.203 19.1203C139.684 21.5153 139.689 23.9816 139.216 26.3784L138.565 26.2502C139.485 21.5824 138.513 16.7404 135.862 12.7894C133.212 8.83841 129.101 6.10212 124.433 5.18248C119.765 4.26283 114.923 5.23515 110.972 7.88554C107.021 10.5359 104.285 14.6473 103.365 19.3152L102.714 19.187Z" fill="#3F3D56"/>
<path d="M109.778 30.923L99.2385 31.3595C99.0133 31.3693 98.7889 31.328 98.582 31.2387C98.3751 31.1494 98.1911 31.0144 98.0438 30.8438C97.8984 30.6777 97.7925 30.4807 97.734 30.2678C97.6756 30.0549 97.6662 29.8315 97.7064 29.6144C98.5152 25.2042 98.2795 20.6659 97.0182 16.3633C96.9209 16.0342 96.9406 15.6816 97.0742 15.3654C97.2077 15.0493 97.4467 14.7893 97.7505 14.6297C102.067 12.3869 106.112 12.2732 109.772 14.2913C109.964 14.3955 110.131 14.5403 110.261 14.7156C110.391 14.8909 110.481 15.0924 110.526 15.3062C111.478 20.0013 111.707 24.8146 111.203 29.5788C111.168 29.9373 111.004 30.271 110.742 30.5181C110.48 30.7653 110.138 30.9091 109.778 30.923Z" fill="#282944"/>
<path d="M109.332 24.025L101.273 24.3587C101.174 24.3629 101.075 24.3475 100.981 24.3134C100.888 24.2792 100.802 24.227 100.729 24.1597C100.656 24.0924 100.597 24.0114 100.555 23.9212C100.513 23.831 100.49 23.7335 100.485 23.6341C100.481 23.5348 100.497 23.4356 100.531 23.3423C100.565 23.249 100.618 23.1633 100.685 23.0902C100.752 23.0171 100.833 22.958 100.924 22.9162C101.014 22.8745 101.111 22.8509 101.211 22.8469L109.269 22.5131C109.368 22.509 109.468 22.5245 109.561 22.5587C109.654 22.5929 109.74 22.6451 109.813 22.7124C109.886 22.7797 109.945 22.8607 109.987 22.9508C110.029 23.041 110.052 23.1384 110.056 23.2377C110.06 23.337 110.045 23.4361 110.011 23.5294C109.977 23.6227 109.924 23.7083 109.857 23.7814C109.79 23.8545 109.709 23.9136 109.619 23.9554C109.529 23.9972 109.431 24.0208 109.332 24.025Z" fill="white"/>
<path d="M109.222 21.374L101.163 21.7077C100.963 21.716 100.767 21.6443 100.62 21.5085C100.472 21.3726 100.385 21.1836 100.376 20.9831C100.368 20.7826 100.44 20.587 100.576 20.4394C100.711 20.2918 100.9 20.2042 101.101 20.1959L109.159 19.8621C109.36 19.8538 109.555 19.9255 109.703 20.0614C109.851 20.1973 109.938 20.3862 109.947 20.5867C109.955 20.7872 109.883 20.9828 109.747 21.1304C109.611 21.278 109.422 21.3656 109.222 21.374Z" fill="white"/>
<path d="M178.751 27.5849H145.032C144.128 27.5839 143.262 27.2245 142.623 26.5855C141.984 25.9465 141.624 25.0801 141.623 24.1764V3.40851C141.624 2.50483 141.984 1.63846 142.623 0.99946C143.262 0.360463 144.128 0.00102445 145.032 0H178.751C179.655 0.00102094 180.521 0.360458 181.16 0.999455C181.799 1.63845 182.159 2.50483 182.16 3.40851V24.1764C182.159 25.0801 181.799 25.9465 181.16 26.5855C180.521 27.2245 179.655 27.5839 178.751 27.5849Z" fill="#E6E6E6"/>
<path d="M165.354 24.9099H147.402C146.556 24.909 145.744 24.5724 145.146 23.9739C144.547 23.3755 144.211 22.5641 144.21 21.7178V5.86722C144.211 5.02087 144.547 4.20948 145.146 3.61104C145.744 3.01259 146.556 2.67598 147.402 2.67505H176.381C177.227 2.67599 178.039 3.01261 178.637 3.61105C179.236 4.20949 179.572 5.02089 179.573 5.86722V10.6909C179.569 14.4607 178.069 18.0749 175.404 20.7406C172.738 23.4063 169.124 24.9057 165.354 24.9099Z" fill="white"/>
<path d="M173.49 11.3544H150.293C150.092 11.3544 149.9 11.2747 149.758 11.1328C149.616 10.9909 149.536 10.7985 149.536 10.5979C149.536 10.3972 149.616 10.2048 149.758 10.0629C149.9 9.92102 150.092 9.84131 150.293 9.84131H173.49C173.691 9.84131 173.883 9.92102 174.025 10.0629C174.167 10.2048 174.247 10.3972 174.247 10.5979C174.247 10.7985 174.167 10.9909 174.025 11.1328C173.883 11.2747 173.691 11.3544 173.49 11.3544Z" fill="#282944"/>
<path d="M153.922 14.3438H150.293C150.093 14.3434 149.9 14.2635 149.759 14.1217C149.617 13.9798 149.538 13.7876 149.538 13.5873C149.538 13.3869 149.617 13.1947 149.759 13.0528C149.9 12.911 150.093 12.8311 150.293 12.8307H153.922C154.122 12.8311 154.314 12.911 154.455 13.0528C154.597 13.1947 154.677 13.3869 154.677 13.5873C154.677 13.7876 154.597 13.9798 154.455 14.1217C154.314 14.2635 154.122 14.3434 153.922 14.3438Z" fill="#282944"/>
<path d="M160.348 17.3333H150.293C150.092 17.3333 149.9 17.2536 149.758 17.1118C149.616 16.9699 149.536 16.7774 149.536 16.5768C149.536 16.3761 149.616 16.1837 149.758 16.0418C149.9 15.8999 150.092 15.8202 150.293 15.8202H160.348C160.549 15.8206 160.741 15.9005 160.882 16.0423C161.024 16.1842 161.103 16.3764 161.103 16.5768C161.103 16.7772 161.024 16.9694 160.882 17.1112C160.741 17.253 160.549 17.3329 160.348 17.3333Z" fill="#282944"/>
<path d="M145.631 31.1801C147.711 27.8344 146.684 23.4362 143.339 21.3565C139.993 19.2768 135.595 20.303 133.515 23.6487C131.435 26.9944 132.462 31.3926 135.807 33.4724C139.153 35.5521 143.551 34.5259 145.631 31.1801Z" fill="#3F3D56"/>
<path d="M299.695 194.976H201.696C201.615 194.976 201.538 194.944 201.48 194.887C201.423 194.83 201.391 194.752 201.391 194.671C201.391 194.59 201.423 194.513 201.48 194.456C201.538 194.399 201.615 194.366 201.696 194.366H299.695C299.776 194.366 299.854 194.399 299.911 194.456C299.968 194.513 300 194.59 300 194.671C300 194.752 299.968 194.83 299.911 194.887C299.854 194.944 299.776 194.976 299.695 194.976Z" fill="#CCCCCC"/>
<path d="M44.5528 83.0601C41.6263 75.3237 41.8929 66.7417 45.294 59.2019C48.6951 51.6621 54.9521 45.7822 62.6885 42.8557C70.4249 39.9292 79.007 40.1958 86.5468 43.5969C94.0866 46.998 99.9665 53.255 102.893 60.9914L102.272 61.2262C100.854 57.477 98.7114 54.0439 95.9664 51.1228C93.2214 48.2018 89.9279 45.85 86.274 44.2018C82.6201 42.5535 78.6773 41.6411 74.6708 41.5166C70.6643 41.3921 66.6725 42.058 62.9233 43.4762C59.1741 44.8945 55.741 47.0372 52.82 49.7822C49.8989 52.5272 47.5471 55.8207 45.8989 59.4746C44.2506 63.1285 43.3382 67.0713 43.2137 71.0778C43.0893 75.0843 43.7551 79.0761 45.1734 82.8253L44.5528 83.0601Z" fill="#3F3D56"/>
<path d="M71.8348 52.1692H61.2864C61.0611 52.1697 60.8385 52.1191 60.6355 52.0213C60.4324 51.9235 60.2542 51.781 60.1141 51.6045C59.9757 51.4325 59.878 51.2313 59.8285 51.0162C59.7789 50.801 59.7787 50.5774 59.8279 50.3622C60.8265 45.9549 60.77 41.3742 59.6631 36.9929C59.5846 36.6828 59.6086 36.3557 59.7317 36.0604C59.8547 35.7652 60.0701 35.5178 60.3455 35.3552C64.1665 33.131 68.247 33.1989 72.4732 35.5575C72.6733 35.6666 72.8458 35.82 72.9776 36.0059C73.1094 36.1918 73.197 36.4054 73.2337 36.6303C73.9859 41.3501 74.013 46.1571 73.3142 50.8851C73.2645 51.2419 73.0873 51.5685 72.8153 51.8046C72.5433 52.0407 72.1949 52.1702 71.8348 52.1692Z" fill="#282944"/>
<path d="M66.9062 41.9375H63.2775C63.0771 41.937 62.8851 41.8571 62.7436 41.7153C62.602 41.5735 62.5225 41.3813 62.5225 41.1809C62.5225 40.9805 62.602 40.7883 62.7436 40.6465C62.8851 40.5046 63.0771 40.4247 63.2775 40.4243H66.9062C67.1066 40.4247 67.2986 40.5046 67.4401 40.6465C67.5817 40.7883 67.6612 40.9805 67.6612 41.1809C67.6612 41.3813 67.5817 41.5735 67.4401 41.7153C67.2986 41.8571 67.1066 41.937 66.9062 41.9375Z" fill="white"/>
<path d="M71.3429 44.927H63.2775C63.0769 44.927 62.8844 44.8473 62.7425 44.7054C62.6006 44.5635 62.5209 44.3711 62.5209 44.1704C62.5209 43.9697 62.6006 43.7773 62.7425 43.6354C62.8844 43.4935 63.0769 43.4138 63.2775 43.4138H71.3429C71.5433 43.4142 71.7353 43.4941 71.8769 43.636C72.0184 43.7778 72.0979 43.97 72.0979 44.1704C72.0979 44.3708 72.0184 44.563 71.8769 44.7048C71.7353 44.8467 71.5433 44.9266 71.3429 44.927Z" fill="white"/>
<path d="M37.1278 82.6423H3.40849C2.50481 82.6413 1.63844 82.2818 0.999445 81.6428C0.360451 81.0038 0.00101918 80.1375 0 79.2338V58.4659C0.00101918 57.5622 0.360451 56.6958 0.999445 56.0568C1.63844 55.4178 2.50481 55.0584 3.40849 55.0574H37.1278C38.0315 55.0584 38.8979 55.4178 39.5368 56.0568C40.1758 56.6958 40.5353 57.5622 40.5363 58.4659V79.2338C40.5353 80.1375 40.1758 81.0039 39.5368 81.6429C38.8979 82.2819 38.0315 82.6413 37.1278 82.6423Z" fill="#E6E6E6"/>
<path d="M23.7306 79.9672H5.77876C4.93241 79.9662 4.121 79.6296 3.52252 79.0312C2.92405 78.4328 2.5874 77.6214 2.58643 76.775V60.9245C2.5874 60.0781 2.92405 59.2667 3.52252 58.6683C4.121 58.0698 4.93241 57.7332 5.77876 57.7323H34.7577C35.604 57.7332 36.4154 58.0698 37.0138 58.6683C37.6123 59.2667 37.9489 60.0781 37.9498 60.9245V65.7481C37.9456 69.518 36.4461 73.1322 33.7804 75.7978C31.1147 78.4635 27.5004 79.9629 23.7306 79.9672Z" fill="white"/>
<path d="M31.8668 66.4118H8.66954C8.46889 66.4118 8.27646 66.3321 8.13458 66.1902C7.9927 66.0483 7.91299 65.8559 7.91299 65.6552C7.91299 65.4546 7.9927 65.2621 8.13458 65.1203C8.27646 64.9784 8.46889 64.8987 8.66954 64.8987H31.8668C32.0674 64.8987 32.2598 64.9784 32.4017 65.1203C32.5436 65.2621 32.6233 65.4546 32.6233 65.6552C32.6233 65.8559 32.5436 66.0483 32.4017 66.1902C32.2598 66.3321 32.0674 66.4118 31.8668 66.4118Z" fill="#282944"/>
<path d="M12.2982 69.4012H8.66954C8.46916 69.4008 8.27713 69.3209 8.13559 69.1791C7.99404 69.0372 7.91455 68.845 7.91455 68.6446C7.91455 68.4443 7.99404 68.2521 8.13559 68.1102C8.27713 67.9684 8.46916 67.8885 8.66954 67.8881H12.2982C12.4986 67.8885 12.6906 67.9684 12.8321 68.1102C12.9737 68.2521 13.0532 68.4443 13.0532 68.6446C13.0532 68.845 12.9737 69.0372 12.8321 69.1791C12.6906 69.3209 12.4986 69.4008 12.2982 69.4012Z" fill="#282944"/>
<path d="M18.725 72.3906H8.66954C8.46916 72.3902 8.27713 72.3103 8.13559 72.1684C7.99404 72.0266 7.91455 71.8344 7.91455 71.634C7.91455 71.4336 7.99404 71.2414 8.13559 71.0996C8.27713 70.9578 8.46916 70.8779 8.66954 70.8774H18.725C18.9256 70.8774 19.1181 70.9572 19.26 71.099C19.4018 71.2409 19.4816 71.4334 19.4816 71.634C19.4816 71.8347 19.4018 72.0271 19.26 72.169C19.1181 72.3109 18.9256 72.3906 18.725 72.3906Z" fill="#282944"/>
<path d="M50.4414 85.5741C52.5212 82.2284 51.4949 77.8302 48.1492 75.7504C44.8035 73.6707 40.4053 74.6969 38.3256 78.0427C36.2458 81.3884 37.2721 85.7866 40.6178 87.8663C43.9635 89.946 48.3617 88.9198 50.4414 85.5741Z" fill="#3F3D56"/>
<path d="M107.987 72.0694H97.4385C97.2131 72.0698 96.9906 72.0193 96.7876 71.9215C96.5845 71.8237 96.4063 71.6812 96.2662 71.5047C96.1278 71.3326 96.0301 71.1315 95.9805 70.9163C95.931 70.7012 95.9308 70.4776 95.98 70.2623C96.9768 65.8628 96.9223 61.2903 95.821 56.9158C95.7428 56.6015 95.7693 56.2702 95.8964 55.9722C96.0236 55.6743 96.2444 55.4259 96.5254 55.2648C101.65 52.3316 105.707 52.4125 108.93 55.5124C109.156 55.7335 109.304 56.0215 109.354 56.3336C110.137 61.1162 110.175 65.9911 109.466 70.7853C109.417 71.142 109.239 71.4687 108.967 71.7047C108.695 71.9408 108.347 72.0704 107.987 72.0694Z" fill="#FF6584"/>
<path d="M103.722 62.1694H100.093C99.8926 62.169 99.7005 62.0891 99.559 61.9472C99.4174 61.8054 99.338 61.6132 99.338 61.4128C99.338 61.2124 99.4174 61.0202 99.559 60.8784C99.7005 60.7366 99.8926 60.6567 100.093 60.6562H103.722C103.922 60.6567 104.114 60.7366 104.256 60.8784C104.397 61.0202 104.477 61.2124 104.477 61.4128C104.477 61.6132 104.397 61.8054 104.256 61.9472C104.114 62.0891 103.922 62.169 103.722 62.1694Z" fill="white"/>
<path d="M108.158 65.1589H100.093C99.8923 65.1589 99.6998 65.0792 99.558 64.9373C99.4161 64.7954 99.3364 64.603 99.3364 64.4023C99.3364 64.2017 99.4161 64.0092 99.558 63.8673C99.6998 63.7255 99.8923 63.6458 100.093 63.6458H108.158C108.359 63.6462 108.551 63.7261 108.692 63.8679C108.834 64.0098 108.913 64.202 108.913 64.4023C108.913 64.6027 108.834 64.7949 108.692 64.9367C108.551 65.0786 108.359 65.1585 108.158 65.1589Z" fill="white"/>
</g>
<defs>
<clipPath id="clip0_797_567">
<rect width="300" height="194.976" fill="white"/>
</clipPath>
</defs>
</svg>
