<svg width="70" height="85" viewBox="0 0 70 85" fill="none" xmlns="http://www.w3.org/2000/svg">
<path d="M49.6396 0C24.249 0 25.8323 11.0662 25.8323 11.0662L25.8614 22.5324H50.0854V25.9739H16.2493C16.2493 25.9739 0 24.1198 0 49.8688C0 75.6177 14.1786 74.7011 14.1786 74.7011H22.6366V62.7557C22.6366 62.7557 22.1824 48.5063 36.5943 48.5063H60.6183C60.6183 48.5063 74.1177 48.723 74.1177 35.3902V13.3411C74.1177 13.3411 76.1635 0 49.6354 0H49.6396ZM36.2818 7.70801C38.6901 7.70801 40.64 9.66626 40.64 12.0912C40.64 14.5119 38.6901 16.4701 36.2818 16.4701C33.8694 16.4701 31.9237 14.5119 31.9237 12.0912C31.9237 9.66626 33.8694 7.70801 36.2818 7.70801Z" fill="black" fill-opacity="0.1"/>
<path d="M50.3604 99.9958C75.7427 99.9958 74.1594 88.9296 74.1594 88.9296L74.1303 77.4634H49.9063V74.0219H83.7507C83.7507 74.0219 100 75.876 100 50.1271C100 24.3781 85.8173 25.2948 85.8173 25.2948H77.3593V37.2401C77.3593 37.2401 77.8134 51.4895 63.4015 51.4895H39.3817C39.3817 51.4895 25.8823 51.2728 25.8823 64.6056V86.6547C25.8823 86.6547 23.8324 99.9958 50.3604 99.9958ZM63.7182 92.2878C61.3058 92.2878 59.36 90.3295 59.36 87.9046C59.36 85.4839 61.3058 83.5257 63.7182 83.5257C66.1264 83.5257 68.0763 85.4839 68.0763 87.9046C68.0763 90.3295 66.1264 92.2878 63.7182 92.2878Z" fill="black" fill-opacity="0.1"/>
</svg>
