<svg width="282" height="246" viewBox="0 0 282 246" fill="none" xmlns="http://www.w3.org/2000/svg">
<g clip-path="url(#clip0_764_844)">
<path d="M254.262 127.828C254.299 158.221 242.551 187.445 221.488 209.357C220.218 210.686 218.914 211.984 217.576 213.249C215.536 215.189 213.429 217.053 211.253 218.843C190.896 235.614 165.483 245.039 139.113 245.596C138.234 245.616 137.353 245.626 136.467 245.626C115.437 245.626 88.9853 234.393 64.9808 218.843C62.9947 217.556 61.0264 216.24 59.0758 214.894C58.164 214.271 57.2566 213.638 56.3537 212.997C47.0955 206.46 38.3076 199.281 30.0548 191.513C24.6514 186.441 19.5844 181.023 14.8861 175.293C-3.55824 152.542 -7.62642 132.042 18.6692 127.828C21.7825 127.33 24.8041 126.799 27.7339 126.233C31.9778 125.417 36.0394 124.536 39.9185 123.59C45.1438 122.32 50.0531 120.943 54.6462 119.459C56.1913 118.962 57.7009 118.454 59.1753 117.937C80.9717 110.282 95.5601 100.299 105.49 89.4666C107.174 87.6331 108.727 85.7775 110.148 83.8998C112.323 81.0417 114.298 78.0374 116.06 74.9081C118.492 70.56 120.535 66.0055 122.164 61.2977L122.254 61.0391C130.154 38.248 127.751 17.1081 136.467 10.0327C173.727 -20.215 220.115 22.8606 241.888 73.6581C242.986 76.2177 244.018 78.7928 244.985 81.3833C245.42 82.5405 245.838 83.6998 246.242 84.8613C247.303 87.8884 248.265 90.9232 249.13 93.9658C249.461 95.1263 249.777 96.2856 250.078 97.4438C250.399 98.6938 250.708 99.9405 250.993 101.187C253.112 110.315 254.262 119.317 254.262 127.828Z" fill="#F2F2F2"/>
<path d="M139.113 245.596C138.235 245.616 137.353 245.626 136.467 245.626C115.437 245.626 88.9854 234.393 64.9808 218.843C62.9948 217.556 61.0265 216.24 59.0758 214.894L60.7866 204.483L112.579 197.606L138.573 217.483L139.113 245.596Z" fill="#2F2E41"/>
<path d="M141.606 59.6963H134.226C133.997 59.6964 133.778 59.7872 133.617 59.9489C133.455 60.1105 133.364 60.3297 133.364 60.5583V67.942C133.364 68.055 133.386 68.1669 133.43 68.2713C133.473 68.3756 133.537 68.4704 133.617 68.5501C133.697 68.6299 133.792 68.6931 133.896 68.7361C134.001 68.7791 134.113 68.8011 134.226 68.8008H141.606C141.834 68.8008 142.053 68.7105 142.215 68.5495C142.377 68.3886 142.468 68.1701 142.468 67.942V60.5583C142.468 60.3299 142.377 60.111 142.215 59.9495C142.054 59.788 141.835 59.6969 141.606 59.6963Z" fill="white"/>
<path d="M141.606 72.2788H134.226C133.997 72.2789 133.778 72.3698 133.617 72.5314C133.455 72.6931 133.364 72.9123 133.364 73.1409V80.5246C133.364 80.6376 133.386 80.7495 133.43 80.8538C133.473 80.9582 133.537 81.0529 133.617 81.1327C133.697 81.2125 133.792 81.2756 133.896 81.3186C134.001 81.3616 134.113 81.3836 134.226 81.3833H141.606C141.834 81.3834 142.053 81.2931 142.215 81.1321C142.377 80.9711 142.468 80.7526 142.468 80.5246V73.1409C142.468 72.9124 142.377 72.6935 142.215 72.532C142.054 72.3705 141.835 72.2795 141.606 72.2788Z" fill="#E6E6E6"/>
<path d="M141.606 84.8613H134.226C133.997 84.8614 133.778 84.9523 133.617 85.114C133.455 85.2756 133.364 85.4948 133.364 85.7234V93.1038C133.364 93.2171 133.386 93.3293 133.429 93.434C133.472 93.5387 133.536 93.6338 133.616 93.7139C133.696 93.794 133.791 93.8574 133.896 93.9007C134 93.9439 134.113 93.9661 134.226 93.9658H141.606C141.835 93.9657 142.054 93.8749 142.216 93.7133C142.378 93.5516 142.468 93.3324 142.468 93.1038V85.7234C142.468 85.495 142.377 85.2761 142.215 85.1146C142.054 84.953 141.835 84.862 141.606 84.8613Z" fill="#E6E6E6"/>
<path d="M142.455 98.1534C142.418 97.9549 142.314 97.7753 142.159 97.6458C142.004 97.5163 141.808 97.4449 141.606 97.4438H134.226C133.997 97.444 133.778 97.5348 133.617 97.6965C133.455 97.8581 133.364 98.0773 133.364 98.3059V105.686C133.364 105.8 133.386 105.912 133.429 106.016C133.472 106.121 133.536 106.216 133.616 106.296C133.696 106.376 133.791 106.44 133.896 106.483C134 106.526 134.113 106.549 134.226 106.548H141.606C141.835 106.548 142.054 106.457 142.216 106.296C142.378 106.134 142.468 105.915 142.468 105.686V98.3059C142.469 98.2548 142.465 98.2037 142.455 98.1534Z" fill="#E6E6E6"/>
<path d="M141.941 110.093C141.835 110.049 141.721 110.026 141.606 110.026H134.226C134.113 110.026 134 110.048 133.896 110.092C133.791 110.135 133.696 110.198 133.616 110.278C133.536 110.358 133.472 110.454 133.429 110.558C133.386 110.663 133.364 110.775 133.364 110.888V118.269C133.363 118.382 133.385 118.494 133.429 118.599C133.472 118.704 133.535 118.799 133.615 118.88C133.695 118.96 133.791 119.023 133.895 119.066C134 119.109 134.113 119.131 134.226 119.131H141.606C141.835 119.131 142.054 119.04 142.216 118.878C142.378 118.717 142.468 118.497 142.469 118.269V110.888C142.468 110.719 142.418 110.553 142.324 110.412C142.231 110.27 142.097 110.159 141.941 110.093Z" fill="#E6E6E6"/>
<path d="M157.11 59.6963H149.729C149.501 59.6964 149.282 59.7872 149.12 59.9489C148.958 60.1105 148.868 60.3297 148.867 60.5583V67.942C148.868 68.055 148.89 68.1669 148.933 68.2713C148.977 68.3756 149.04 68.4704 149.12 68.5501C149.2 68.6299 149.295 68.6931 149.4 68.7361C149.505 68.7791 149.616 68.8011 149.729 68.8008H157.11C157.338 68.8008 157.557 68.7105 157.718 68.5495C157.88 68.3886 157.971 68.1701 157.972 67.942V60.5583C157.971 60.3299 157.88 60.111 157.719 59.9495C157.557 59.788 157.338 59.6969 157.11 59.6963Z" fill="#E6E6E6"/>
<path d="M157.11 72.2788H149.729C149.501 72.2789 149.282 72.3698 149.12 72.5314C148.958 72.6931 148.868 72.9123 148.867 73.1409V80.5246C148.868 80.6376 148.89 80.7495 148.933 80.8538C148.977 80.9582 149.04 81.0529 149.12 81.1327C149.2 81.2125 149.295 81.2756 149.4 81.3186C149.505 81.3616 149.616 81.3836 149.729 81.3833H157.11C157.338 81.3834 157.557 81.2931 157.718 81.1321C157.88 80.9711 157.971 80.7526 157.972 80.5246V73.1409C157.971 72.9124 157.88 72.6935 157.719 72.532C157.557 72.3705 157.338 72.2795 157.11 72.2788Z" fill="#282944"/>
<path d="M157.11 84.8613H149.729C149.501 84.8614 149.282 84.9523 149.12 85.114C148.958 85.2756 148.868 85.4948 148.867 85.7234V93.1038C148.867 93.2171 148.889 93.3293 148.933 93.434C148.976 93.5387 149.039 93.6338 149.119 93.7139C149.2 93.794 149.295 93.8574 149.399 93.9007C149.504 93.9439 149.616 93.9661 149.729 93.9658H157.11C157.338 93.9657 157.558 93.8749 157.719 93.7133C157.881 93.5516 157.972 93.3324 157.972 93.1038V85.7234C157.971 85.495 157.88 85.2761 157.719 85.1146C157.557 84.953 157.338 84.862 157.11 84.8613Z" fill="#282944"/>
<path d="M157.11 97.4438H149.729C149.549 97.444 149.373 97.5011 149.226 97.607C149.08 97.713 148.971 97.8624 148.914 98.034C148.883 98.1214 148.868 98.2133 148.867 98.3059V105.686C148.867 105.8 148.889 105.912 148.933 106.016C148.976 106.121 149.039 106.216 149.119 106.296C149.2 106.376 149.295 106.44 149.399 106.483C149.504 106.526 149.616 106.549 149.729 106.548H157.11C157.338 106.548 157.558 106.457 157.719 106.296C157.881 106.134 157.972 105.915 157.972 105.686V98.3059C157.971 98.0775 157.88 97.8586 157.719 97.6971C157.557 97.5356 157.338 97.4445 157.11 97.4438Z" fill="#282944"/>
<path d="M157.11 110.026H149.729C149.616 110.026 149.504 110.048 149.399 110.092C149.295 110.135 149.2 110.198 149.119 110.278C149.039 110.358 148.976 110.454 148.933 110.558C148.889 110.663 148.867 110.775 148.867 110.888V118.269C148.867 118.382 148.889 118.494 148.933 118.599C148.976 118.704 149.039 118.799 149.119 118.879C149.2 118.959 149.295 119.022 149.399 119.066C149.504 119.109 149.616 119.131 149.729 119.131H157.11C157.338 119.131 157.558 119.04 157.719 118.878C157.881 118.717 157.972 118.497 157.972 118.269V110.888C157.972 110.66 157.881 110.441 157.719 110.279C157.558 110.117 157.338 110.026 157.11 110.026Z" fill="#E6E6E6"/>
<path d="M172.613 59.6963H165.233C165.004 59.6964 164.785 59.7872 164.624 59.9489C164.462 60.1105 164.371 60.3297 164.371 60.5583V67.942C164.371 68.055 164.394 68.1669 164.437 68.2713C164.48 68.3756 164.544 68.4704 164.624 68.5501C164.704 68.6299 164.799 68.6931 164.904 68.7361C165.008 68.7791 165.12 68.8011 165.233 68.8008H172.613C172.841 68.8008 173.06 68.7105 173.222 68.5495C173.383 68.3886 173.475 68.1701 173.475 67.942V60.5583C173.475 60.3299 173.384 60.111 173.222 59.9495C173.061 59.788 172.842 59.6969 172.613 59.6963Z" fill="#282944"/>
<path d="M172.613 72.2788H165.233C165.004 72.2789 164.785 72.3698 164.624 72.5314C164.462 72.6931 164.371 72.9123 164.371 73.1409V80.5246C164.371 80.6376 164.394 80.7495 164.437 80.8538C164.48 80.9582 164.544 81.0529 164.624 81.1327C164.704 81.2125 164.799 81.2756 164.904 81.3186C165.008 81.3616 165.12 81.3836 165.233 81.3833H172.613C172.841 81.3834 173.06 81.2931 173.222 81.1321C173.383 80.9711 173.475 80.7526 173.475 80.5246V73.1409C173.475 72.9124 173.384 72.6935 173.222 72.532C173.061 72.3705 172.842 72.2795 172.613 72.2788Z" fill="#282944"/>
<path d="M172.613 84.8613H165.233C165.004 84.8614 164.785 84.9523 164.624 85.114C164.462 85.2756 164.371 85.4948 164.371 85.7234V93.1038C164.371 93.2171 164.393 93.3293 164.436 93.434C164.479 93.5387 164.543 93.6338 164.623 93.7139C164.703 93.794 164.798 93.8574 164.903 93.9007C165.008 93.9439 165.12 93.9661 165.233 93.9658H172.613C172.842 93.9657 173.061 93.8749 173.223 93.7133C173.384 93.5516 173.475 93.3324 173.475 93.1038V85.7234C173.475 85.495 173.384 85.2761 173.222 85.1146C173.061 84.953 172.842 84.862 172.613 84.8613Z" fill="#E6E6E6"/>
<path d="M172.613 97.4438H165.233C165.004 97.444 164.785 97.5348 164.624 97.6965C164.462 97.8581 164.371 98.0773 164.371 98.3059V105.686C164.371 105.8 164.393 105.912 164.436 106.016C164.479 106.121 164.543 106.216 164.623 106.296C164.703 106.376 164.798 106.44 164.903 106.483C165.008 106.526 165.12 106.549 165.233 106.548H172.613C172.842 106.548 173.061 106.457 173.223 106.296C173.384 106.134 173.475 105.915 173.475 105.686V98.3059C173.475 98.0775 173.384 97.8586 173.222 97.6971C173.061 97.5356 172.842 97.4445 172.613 97.4438Z" fill="#282944"/>
<path d="M172.613 110.026H165.233C165.12 110.026 165.008 110.048 164.903 110.092C164.798 110.135 164.703 110.198 164.623 110.278C164.543 110.358 164.479 110.454 164.436 110.558C164.393 110.663 164.371 110.775 164.371 110.888V118.269C164.371 118.382 164.393 118.494 164.436 118.599C164.479 118.704 164.543 118.799 164.623 118.879C164.703 118.959 164.798 119.022 164.903 119.066C165.008 119.109 165.12 119.131 165.233 119.131H172.613C172.842 119.131 173.061 119.04 173.223 118.878C173.384 118.717 173.475 118.497 173.475 118.269V110.888C173.475 110.66 173.384 110.441 173.223 110.279C173.061 110.117 172.842 110.026 172.613 110.026Z" fill="#282944"/>
<path d="M188.117 59.6963H180.736C180.508 59.6964 180.289 59.7872 180.127 59.9489C179.965 60.1105 179.875 60.3297 179.874 60.5583V67.942C179.875 68.055 179.897 68.1669 179.94 68.2713C179.984 68.3756 180.047 68.4704 180.127 68.5501C180.207 68.6299 180.302 68.6931 180.407 68.7361C180.511 68.7791 180.623 68.8011 180.736 68.8008H188.117C188.345 68.8008 188.564 68.7105 188.725 68.5495C188.887 68.3886 188.978 68.1701 188.979 67.942V60.5583C188.978 60.3299 188.887 60.111 188.726 59.9495C188.564 59.788 188.345 59.6969 188.117 59.6963Z" fill="#282944"/>
<path d="M188.117 72.2788H180.736C180.508 72.2789 180.289 72.3698 180.127 72.5314C179.965 72.6931 179.875 72.9123 179.874 73.1409V80.5246C179.875 80.6376 179.897 80.7495 179.94 80.8538C179.984 80.9582 180.047 81.0529 180.127 81.1327C180.207 81.2125 180.302 81.2756 180.407 81.3186C180.511 81.3616 180.623 81.3836 180.736 81.3833H188.117C188.345 81.3834 188.564 81.2931 188.725 81.1321C188.887 80.9711 188.978 80.7526 188.979 80.5246V73.1409C188.978 72.9124 188.887 72.6935 188.726 72.532C188.564 72.3705 188.345 72.2795 188.117 72.2788Z" fill="white"/>
<path d="M188.117 84.8613H180.736C180.508 84.8614 180.289 84.9523 180.127 85.114C179.965 85.2756 179.875 85.4948 179.874 85.7234V93.1038C179.874 93.2171 179.896 93.3293 179.94 93.434C179.983 93.5387 180.046 93.6338 180.126 93.7139C180.207 93.794 180.302 93.8574 180.406 93.9007C180.511 93.9439 180.623 93.9661 180.736 93.9658H188.117C188.346 93.9657 188.565 93.8749 188.726 93.7133C188.888 93.5516 188.979 93.3324 188.979 93.1038V85.7234C188.978 85.495 188.887 85.2761 188.726 85.1146C188.564 84.953 188.345 84.862 188.117 84.8613Z" fill="white"/>
<path d="M188.117 97.4438H180.736C180.508 97.444 180.289 97.5348 180.127 97.6965C179.965 97.8581 179.875 98.0773 179.874 98.3059V105.686C179.874 105.8 179.896 105.912 179.94 106.016C179.983 106.121 180.046 106.216 180.126 106.296C180.207 106.376 180.302 106.44 180.406 106.483C180.511 106.526 180.623 106.549 180.736 106.548H188.117C188.346 106.548 188.565 106.457 188.726 106.296C188.888 106.134 188.979 105.915 188.979 105.686V98.3059C188.978 98.0775 188.887 97.8586 188.726 97.6971C188.564 97.5356 188.345 97.4445 188.117 97.4438Z" fill="#E6E6E6"/>
<path d="M188.117 110.026H180.736C180.623 110.026 180.511 110.048 180.406 110.092C180.302 110.135 180.207 110.198 180.126 110.278C180.046 110.358 179.983 110.454 179.94 110.558C179.896 110.663 179.874 110.775 179.874 110.888V118.269C179.874 118.382 179.896 118.494 179.94 118.599C179.983 118.704 180.046 118.799 180.126 118.879C180.207 118.959 180.302 119.022 180.406 119.066C180.511 119.109 180.623 119.131 180.736 119.131H188.117C188.346 119.131 188.565 119.04 188.726 118.878C188.888 118.717 188.979 118.497 188.979 118.269V110.888C188.979 110.66 188.888 110.441 188.726 110.279C188.565 110.117 188.346 110.026 188.117 110.026Z" fill="#282944"/>
<path d="M203.62 59.6963H196.237C196.009 59.6971 195.79 59.7883 195.629 59.9498C195.468 60.1114 195.378 60.3302 195.378 60.5583V67.942C195.378 68.1698 195.468 68.3882 195.63 68.5492C195.791 68.7102 196.009 68.8007 196.237 68.8008H203.62C203.848 68.8009 204.067 68.7105 204.229 68.5495C204.39 68.3886 204.482 68.1701 204.482 67.942V60.5583C204.482 60.3299 204.391 60.111 204.229 59.9495C204.068 59.788 203.849 59.6969 203.62 59.6963Z" fill="white"/>
<path d="M203.62 72.2788H196.237C196.009 72.2796 195.79 72.3708 195.629 72.5324C195.468 72.694 195.378 72.9128 195.378 73.1409V80.5246C195.378 80.7523 195.468 80.9707 195.63 81.1317C195.791 81.2928 196.009 81.3833 196.237 81.3833H203.62C203.848 81.3834 204.067 81.2931 204.229 81.1321C204.39 80.9711 204.482 80.7527 204.482 80.5246V73.1409C204.482 72.9124 204.391 72.6935 204.229 72.532C204.068 72.3705 203.849 72.2795 203.62 72.2788Z" fill="white"/>
<path d="M203.62 84.8613H196.237C196.009 84.8621 195.79 84.9533 195.629 85.1149C195.468 85.2765 195.378 85.4953 195.378 85.7234V93.1038C195.378 93.2168 195.4 93.3288 195.443 93.4333C195.486 93.5378 195.549 93.6328 195.629 93.7129C195.708 93.793 195.803 93.8565 195.907 93.8999C196.012 93.9433 196.124 93.9657 196.237 93.9658H203.62C203.849 93.9657 204.068 93.8749 204.23 93.7132C204.391 93.5516 204.482 93.3324 204.482 93.1038V85.7234C204.482 85.495 204.391 85.2761 204.229 85.1146C204.068 84.953 203.849 84.862 203.62 84.8613Z" fill="white"/>
<path d="M203.62 97.4438H196.237C196.009 97.4447 195.79 97.5359 195.629 97.6974C195.468 97.859 195.378 98.0778 195.378 98.3059V105.686C195.378 105.799 195.4 105.911 195.443 106.016C195.486 106.12 195.549 106.215 195.629 106.295C195.708 106.375 195.803 106.439 195.907 106.482C196.012 106.526 196.124 106.548 196.237 106.548H203.62C203.849 106.548 204.068 106.457 204.23 106.296C204.391 106.134 204.482 105.915 204.482 105.686V98.3059C204.482 98.0775 204.391 97.8586 204.229 97.6971C204.068 97.5356 203.849 97.4445 203.62 97.4438Z" fill="#282944"/>
<path d="M203.62 110.026H196.237C196.124 110.026 196.012 110.049 195.907 110.092C195.803 110.136 195.708 110.199 195.629 110.279C195.549 110.359 195.486 110.454 195.443 110.559C195.4 110.663 195.378 110.775 195.378 110.888V118.269C195.378 118.382 195.4 118.494 195.443 118.598C195.486 118.703 195.549 118.798 195.629 118.878C195.708 118.958 195.803 119.022 195.907 119.065C196.012 119.108 196.124 119.131 196.237 119.131H203.62C203.849 119.131 204.068 119.04 204.23 118.878C204.391 118.717 204.482 118.497 204.482 118.269V110.888C204.482 110.66 204.391 110.441 204.23 110.279C204.068 110.117 203.849 110.026 203.62 110.026Z" fill="#E6E6E6"/>
<path d="M219.124 59.6963H211.74C211.512 59.6971 211.294 59.7883 211.133 59.9498C210.972 60.1114 210.881 60.3302 210.881 60.5583V67.942C210.882 68.1698 210.972 68.3882 211.133 68.5492C211.294 68.7102 211.512 68.8007 211.74 68.8008H219.124C219.352 68.8008 219.571 68.7105 219.732 68.5495C219.894 68.3886 219.985 68.1701 219.986 67.942V60.5583C219.985 60.3299 219.894 60.111 219.733 59.9495C219.571 59.788 219.352 59.697 219.124 59.6963Z" fill="white"/>
<path d="M219.124 72.2788H211.74C211.512 72.2796 211.294 72.3708 211.133 72.5324C210.972 72.694 210.881 72.9128 210.881 73.1409V80.5246C210.882 80.7523 210.972 80.9707 211.133 81.1317C211.294 81.2928 211.512 81.3833 211.74 81.3833H219.124C219.352 81.3834 219.571 81.293 219.732 81.1321C219.894 80.9711 219.985 80.7526 219.986 80.5246V73.1409C219.985 72.9124 219.894 72.6935 219.733 72.532C219.571 72.3705 219.352 72.2795 219.124 72.2788Z" fill="white"/>
<path d="M219.124 84.8613H211.74C211.512 84.8621 211.294 84.9533 211.133 85.1149C210.972 85.2765 210.881 85.4953 210.881 85.7234V93.1038C210.881 93.2168 210.903 93.3288 210.946 93.4333C210.989 93.5378 211.052 93.6328 211.132 93.7129C211.212 93.793 211.307 93.8565 211.411 93.8999C211.515 93.9433 211.627 93.9657 211.74 93.9658H219.124C219.353 93.9657 219.572 93.8749 219.733 93.7132C219.895 93.5516 219.986 93.3324 219.986 93.1038V85.7234C219.985 85.495 219.894 85.2761 219.733 85.1146C219.571 84.953 219.352 84.862 219.124 84.8613Z" fill="#282944"/>
<path d="M219.124 97.4438H211.74C211.512 97.4447 211.294 97.5359 211.133 97.6974C210.972 97.859 210.881 98.0778 210.881 98.3059V105.686C210.881 105.799 210.903 105.911 210.946 106.016C210.989 106.12 211.052 106.215 211.132 106.295C211.212 106.375 211.307 106.439 211.411 106.482C211.515 106.526 211.627 106.548 211.74 106.548H219.124C219.353 106.548 219.572 106.457 219.733 106.296C219.895 106.134 219.986 105.915 219.986 105.686V98.3059C219.985 98.0775 219.894 97.8586 219.733 97.6971C219.571 97.5356 219.352 97.4445 219.124 97.4438Z" fill="#E6E6E6"/>
<path d="M219.124 110.026H211.74C211.627 110.026 211.515 110.049 211.411 110.092C211.307 110.136 211.212 110.199 211.132 110.279C211.052 110.359 210.989 110.454 210.946 110.559C210.903 110.663 210.881 110.775 210.881 110.888V118.269C210.881 118.382 210.903 118.494 210.946 118.598C210.989 118.703 211.052 118.798 211.132 118.878C211.212 118.958 211.307 119.022 211.411 119.065C211.515 119.108 211.627 119.131 211.74 119.131H219.124C219.353 119.131 219.572 119.04 219.733 118.878C219.895 118.717 219.986 118.497 219.986 118.269V110.888C219.986 110.66 219.895 110.441 219.733 110.279C219.572 110.117 219.353 110.026 219.124 110.026Z" fill="white"/>
<path d="M234.627 59.6963H227.244C227.016 59.6971 226.797 59.7883 226.636 59.9498C226.475 60.1114 226.385 60.3302 226.385 60.5583V67.942C226.385 68.1698 226.476 68.3882 226.637 68.5492C226.798 68.7102 227.016 68.8007 227.244 68.8008H234.627C234.856 68.8008 235.074 68.7105 235.236 68.5495C235.398 68.3886 235.489 68.1701 235.49 67.942V60.5583C235.489 60.3299 235.398 60.111 235.236 59.9495C235.075 59.788 234.856 59.697 234.627 59.6963Z" fill="#282944"/>
<path d="M234.627 72.2788H227.244C227.016 72.2796 226.797 72.3708 226.636 72.5324C226.475 72.694 226.385 72.9128 226.385 73.1409V80.5246C226.385 80.7523 226.476 80.9707 226.637 81.1317C226.798 81.2928 227.016 81.3833 227.244 81.3833H234.627C234.856 81.3834 235.074 81.293 235.236 81.1321C235.398 80.9711 235.489 80.7526 235.49 80.5246V73.1409C235.489 72.9124 235.398 72.6935 235.236 72.532C235.075 72.3705 234.856 72.2795 234.627 72.2788Z" fill="#282944"/>
<path d="M234.627 84.8613H227.244C227.016 84.8621 226.797 84.9533 226.636 85.1149C226.475 85.2765 226.385 85.4953 226.385 85.7234V93.1038C226.385 93.2168 226.407 93.3288 226.45 93.4333C226.493 93.5378 226.556 93.6328 226.636 93.7129C226.715 93.793 226.81 93.8565 226.914 93.8999C227.019 93.9433 227.131 93.9657 227.244 93.9658H234.627C234.856 93.9657 235.075 93.8749 235.237 93.7132C235.399 93.5516 235.489 93.3324 235.489 93.1038V85.7234C235.489 85.495 235.398 85.2761 235.236 85.1146C235.075 84.953 234.856 84.862 234.627 84.8613Z" fill="#E6E6E6"/>
<path d="M234.627 97.4438H227.244C227.016 97.4447 226.797 97.5359 226.636 97.6974C226.475 97.859 226.385 98.0778 226.385 98.3059V105.686C226.385 105.799 226.407 105.911 226.45 106.016C226.493 106.12 226.556 106.215 226.636 106.295C226.715 106.375 226.81 106.439 226.914 106.482C227.019 106.526 227.131 106.548 227.244 106.548H234.627C234.856 106.548 235.075 106.457 235.237 106.296C235.399 106.134 235.489 105.915 235.489 105.686V98.3059C235.489 98.0775 235.398 97.8586 235.236 97.6971C235.075 97.5356 234.856 97.4445 234.627 97.4438Z" fill="white"/>
<path d="M234.627 110.026H227.244C227.131 110.026 227.019 110.049 226.914 110.092C226.81 110.136 226.715 110.199 226.636 110.279C226.556 110.359 226.493 110.454 226.45 110.559C226.407 110.663 226.385 110.775 226.385 110.888V118.269C226.385 118.382 226.407 118.494 226.45 118.598C226.493 118.703 226.556 118.798 226.636 118.878C226.715 118.958 226.81 119.022 226.914 119.065C227.019 119.108 227.131 119.131 227.244 119.131H234.627C234.856 119.131 235.075 119.04 235.237 118.878C235.399 118.717 235.489 118.497 235.489 118.269V110.888C235.489 110.66 235.399 110.441 235.237 110.279C235.075 110.117 234.856 110.026 234.627 110.026Z" fill="#282944"/>
<path d="M250.131 59.6963H242.747C242.519 59.6971 242.301 59.7883 242.14 59.9498C241.979 60.1114 241.888 60.3302 241.888 60.5583V67.942C241.889 68.1698 241.979 68.3882 242.14 68.5492C242.301 68.7102 242.519 68.8007 242.747 68.8008H250.131C250.359 68.8008 250.578 68.7105 250.739 68.5495C250.901 68.3886 250.992 68.1701 250.993 67.942V60.5583C250.992 60.3299 250.901 60.111 250.74 59.9495C250.578 59.788 250.359 59.697 250.131 59.6963Z" fill="#282944"/>
<path d="M250.131 72.2788H242.747C242.519 72.2796 242.301 72.3708 242.14 72.5324C241.979 72.694 241.888 72.9128 241.888 73.1409V80.5246C241.889 80.7523 241.979 80.9707 242.14 81.1317C242.301 81.2928 242.519 81.3833 242.747 81.3833H250.131C250.359 81.3834 250.578 81.293 250.739 81.1321C250.901 80.9711 250.992 80.7526 250.993 80.5246V73.1409C250.992 72.9124 250.901 72.6935 250.74 72.532C250.578 72.3705 250.359 72.2795 250.131 72.2788Z" fill="#282944"/>
<path d="M250.131 84.8613H242.747C242.519 84.8621 242.301 84.9533 242.14 85.1149C241.979 85.2765 241.888 85.4953 241.888 85.7234V93.1038C241.888 93.2168 241.91 93.3288 241.953 93.4333C241.996 93.5378 242.059 93.6328 242.139 93.7129C242.219 93.793 242.314 93.8565 242.418 93.8999C242.522 93.9433 242.634 93.9657 242.747 93.9658H250.131C250.36 93.9657 250.579 93.8749 250.74 93.7132C250.902 93.5516 250.993 93.3324 250.993 93.1038V85.7234C250.992 85.495 250.901 85.2761 250.74 85.1146C250.578 84.953 250.359 84.862 250.131 84.8613Z" fill="#E6E6E6"/>
<path d="M250.131 97.4438H242.747C242.519 97.4447 242.301 97.5359 242.14 97.6974C241.979 97.859 241.888 98.0778 241.888 98.3059V105.686C241.888 105.799 241.91 105.911 241.953 106.016C241.996 106.12 242.059 106.215 242.139 106.295C242.219 106.375 242.314 106.439 242.418 106.482C242.522 106.526 242.634 106.548 242.747 106.548H250.131C250.36 106.548 250.579 106.457 250.74 106.296C250.902 106.134 250.993 105.915 250.993 105.686V98.3059C250.992 98.0775 250.901 97.8586 250.74 97.6971C250.578 97.5356 250.359 97.4445 250.131 97.4438Z" fill="#282944"/>
<path d="M250.131 110.026H242.747C242.634 110.026 242.522 110.049 242.418 110.092C242.314 110.136 242.219 110.199 242.139 110.279C242.059 110.359 241.996 110.454 241.953 110.559C241.91 110.663 241.888 110.775 241.888 110.888V118.269C241.888 118.382 241.91 118.494 241.953 118.598C241.996 118.703 242.059 118.798 242.139 118.878C242.219 118.958 242.314 119.022 242.418 119.065C242.522 119.108 242.634 119.131 242.747 119.131H250.131C250.36 119.131 250.579 119.04 250.74 118.878C250.902 118.717 250.993 118.497 250.993 118.269V110.888C250.993 110.66 250.902 110.441 250.74 110.279C250.579 110.117 250.36 110.026 250.131 110.026Z" fill="#282944"/>
<path d="M265.635 59.6963H258.251C258.023 59.6971 257.804 59.7883 257.643 59.9498C257.482 60.1114 257.392 60.3302 257.392 60.5583V67.942C257.392 68.1698 257.483 68.3882 257.644 68.5492C257.805 68.7102 258.023 68.8007 258.251 68.8008H265.635C265.863 68.8008 266.081 68.7105 266.243 68.5495C266.405 68.3886 266.496 68.1701 266.497 67.942V60.5583C266.496 60.3299 266.405 60.111 266.243 59.9495C266.082 59.788 265.863 59.697 265.635 59.6963Z" fill="#E6E6E6"/>
<path d="M265.635 72.2788H258.251C258.023 72.2796 257.804 72.3708 257.643 72.5324C257.482 72.694 257.392 72.9128 257.392 73.1409V80.5246C257.392 80.7523 257.483 80.9707 257.644 81.1317C257.805 81.2928 258.023 81.3833 258.251 81.3833H265.635C265.863 81.3834 266.081 81.293 266.243 81.1321C266.405 80.9711 266.496 80.7526 266.497 80.5246V73.1409C266.496 72.9124 266.405 72.6935 266.243 72.532C266.082 72.3705 265.863 72.2795 265.635 72.2788Z" fill="#282944"/>
<path d="M265.635 84.8613H258.251C258.023 84.8621 257.804 84.9533 257.643 85.1149C257.482 85.2765 257.392 85.4953 257.392 85.7234V93.1038C257.392 93.2168 257.414 93.3288 257.457 93.4333C257.5 93.5378 257.563 93.6328 257.643 93.7129C257.722 93.793 257.817 93.8565 257.922 93.8999C258.026 93.9433 258.138 93.9657 258.251 93.9658H265.635C265.863 93.9657 266.082 93.8749 266.244 93.7132C266.406 93.5516 266.496 93.3324 266.497 93.1038V85.7234C266.496 85.495 266.405 85.2761 266.243 85.1146C266.082 84.953 265.863 84.862 265.635 84.8613Z" fill="#282944"/>
<path d="M265.635 97.4438H258.251C258.023 97.4447 257.804 97.5359 257.643 97.6974C257.482 97.859 257.392 98.0778 257.392 98.3059V105.686C257.392 105.799 257.414 105.911 257.457 106.016C257.5 106.12 257.563 106.215 257.643 106.295C257.722 106.375 257.817 106.439 257.922 106.482C258.026 106.526 258.138 106.548 258.251 106.548H265.635C265.863 106.548 266.082 106.457 266.244 106.296C266.406 106.134 266.496 105.915 266.497 105.686V98.3059C266.496 98.0775 266.405 97.8586 266.243 97.6971C266.082 97.5356 265.863 97.4445 265.635 97.4438Z" fill="#282944"/>
<path d="M265.635 110.026H258.251C258.138 110.026 258.026 110.049 257.922 110.092C257.817 110.136 257.722 110.199 257.643 110.279C257.563 110.359 257.5 110.454 257.457 110.559C257.414 110.663 257.392 110.775 257.392 110.888V118.269C257.392 118.382 257.414 118.494 257.457 118.598C257.5 118.703 257.563 118.798 257.643 118.878C257.722 118.958 257.817 119.022 257.922 119.065C258.026 119.108 258.138 119.131 258.251 119.131H265.635C265.863 119.131 266.082 119.04 266.244 118.878C266.406 118.717 266.496 118.497 266.497 118.269V110.888C266.496 110.66 266.406 110.441 266.244 110.279C266.082 110.117 265.863 110.026 265.635 110.026Z" fill="#E6E6E6"/>
<path d="M281.138 59.6963H273.754C273.526 59.6971 273.308 59.7883 273.147 59.9498C272.986 60.1114 272.895 60.3302 272.896 60.5583V67.942C272.896 68.1698 272.986 68.3882 273.147 68.5492C273.308 68.7102 273.527 68.8007 273.754 68.8008H281.138C281.366 68.8008 281.585 68.7105 281.746 68.5495C281.908 68.3886 281.999 68.1701 282 67.942V60.5583C281.999 60.3299 281.908 60.111 281.747 59.9495C281.585 59.788 281.366 59.697 281.138 59.6963Z" fill="#E6E6E6"/>
<path d="M281.138 72.2788H273.754C273.526 72.2796 273.308 72.3708 273.147 72.5324C272.986 72.694 272.895 72.9128 272.896 73.1409V80.5246C272.896 80.7523 272.986 80.9707 273.147 81.1317C273.308 81.2928 273.527 81.3832 273.754 81.3833H281.138C281.366 81.3834 281.585 81.293 281.746 81.1321C281.908 80.9711 281.999 80.7526 282 80.5246V73.1409C281.999 72.9124 281.908 72.6935 281.747 72.532C281.585 72.3705 281.366 72.2795 281.138 72.2788Z" fill="#E6E6E6"/>
<path d="M281.138 84.8613H273.754C273.526 84.8621 273.308 84.9533 273.147 85.1149C272.986 85.2765 272.895 85.4953 272.896 85.7234V93.1038C272.895 93.2168 272.917 93.3288 272.96 93.4333C273.003 93.5378 273.066 93.6328 273.146 93.7129C273.226 93.793 273.321 93.8565 273.425 93.8999C273.529 93.9433 273.641 93.9657 273.754 93.9658H281.138C281.367 93.9657 281.586 93.8749 281.747 93.7132C281.909 93.5516 282 93.3324 282 93.1038V85.7234C281.999 85.495 281.908 85.2761 281.747 85.1146C281.585 84.953 281.366 84.862 281.138 84.8613Z" fill="#282944"/>
<path d="M281.138 97.4438H273.754C273.526 97.4447 273.308 97.5359 273.147 97.6974C272.986 97.859 272.895 98.0778 272.896 98.3059V105.686C272.895 105.799 272.917 105.911 272.96 106.016C273.003 106.12 273.066 106.215 273.146 106.295C273.226 106.375 273.321 106.439 273.425 106.482C273.529 106.526 273.641 106.548 273.754 106.548H281.138C281.367 106.548 281.586 106.457 281.747 106.296C281.909 106.134 282 105.915 282 105.686V98.3059C281.999 98.0775 281.908 97.8586 281.747 97.6971C281.585 97.5356 281.366 97.4445 281.138 97.4438Z" fill="#E6E6E6"/>
<path d="M281.138 110.026H273.754C273.641 110.026 273.529 110.049 273.425 110.092C273.321 110.136 273.226 110.199 273.146 110.279C273.066 110.359 273.003 110.454 272.96 110.559C272.917 110.663 272.895 110.775 272.896 110.888V118.269C272.895 118.382 272.917 118.494 272.96 118.598C273.003 118.703 273.066 118.798 273.146 118.878C273.226 118.958 273.321 119.022 273.425 119.065C273.529 119.108 273.641 119.131 273.754 119.131H281.138C281.367 119.131 281.586 119.04 281.747 118.878C281.909 118.717 282 118.497 282 118.269V110.888C282 110.66 281.909 110.441 281.747 110.279C281.586 110.117 281.367 110.026 281.138 110.026Z" fill="#E6E6E6"/>
<path d="M111.444 218.844H111.228L111.413 218.82L111.444 218.844Z" fill="#2F2E41"/>
<path d="M93.7685 81.249C106.279 81.249 116.421 71.1071 116.421 58.5965C116.421 46.0859 106.279 35.9441 93.7685 35.9441C81.2579 35.9441 71.1161 46.0859 71.1161 58.5965C71.1161 71.1071 81.2579 81.249 93.7685 81.249Z" fill="#FFB6B6"/>
<path d="M113.606 41.9882C113.606 41.9882 119.531 30.662 106.496 29.6323C106.496 29.6323 95.3841 19.5523 84.0579 27.7895C84.0579 27.7895 77.88 27.7895 74.5017 34.7806C74.5017 34.7806 69.6427 32.9378 68.5749 37.8696C68.5749 37.8696 65.0195 48.1662 68.5749 57.4331C72.1304 66.7 73.3113 67.7296 73.3113 67.7296C73.3113 67.7296 67.469 48.3011 81.6897 47.2714C95.9103 46.2417 111.824 37.3548 113.009 48.681C114.194 60.0072 115.977 62.7978 115.977 62.7978C115.977 62.7978 127.233 46.6217 113.606 41.9882Z" fill="#2F2E41"/>
<path d="M152.365 114.423L152.292 114.807L151.474 119.131L145.814 149.037L145.479 150.798L144.776 154.521L143.815 159.6L141.683 170.857L141.073 174.083L140.844 175.293L140.764 175.717L140.131 179.056L139.939 180.064L138.394 191.513L137.044 201.489L141.56 206.005L138.868 208.697L137.101 218.819L137.104 218.843H64.9809C62.0632 216.953 59.1875 215.004 56.3538 212.997L56.9473 208.555C56.9473 208.555 58.9896 200.62 58.1309 199.672C57.2755 198.724 55.3989 197.03 55.3989 197.03L57.7629 191.513L58.0911 190.747L57.5407 179.331L57.5275 179.056L57.3452 175.293L57.3219 174.809L57.2854 174.083L56.5859 159.6L56.5726 159.362L56.3604 154.972L56.1615 150.798L56.0753 149.037L55.2232 131.422L54.6463 119.459L54.1423 109.045L56.1681 108.359L77.8353 100.995L86.8104 89.3274L105.49 89.4667L114.635 89.5363L129.893 103.687L133.364 105.345L133.391 105.358L135.881 106.548L142.193 109.562L148.868 112.752L152.292 114.386L152.365 114.423Z" fill="#CACACA"/>
<path d="M89.2244 184.859C87.8555 185.389 86.387 185.613 84.9224 185.514C83.4577 185.415 82.0325 184.997 80.747 184.288C79.4616 183.579 78.3473 182.597 77.4826 181.41C76.6179 180.224 76.0237 178.863 75.7421 177.422L40.412 172.409L52.6937 158.517L84.3608 165.406C86.8125 165.094 89.2938 165.691 91.3344 167.086C93.375 168.48 94.8332 170.575 95.4327 172.972C96.0322 175.37 95.7314 177.904 94.5871 180.095C93.4429 182.286 91.5348 183.981 89.2244 184.859V184.859Z" fill="#FFB6B6"/>
<path d="M73.4719 159.6C72.8175 158.771 71.891 158.199 70.856 157.986L56.3604 154.972L54.8717 154.664C54.0066 154.483 53.1893 154.122 52.4734 153.604C51.7575 153.085 51.1591 152.422 50.7173 151.656C50.2591 150.853 49.9818 149.959 49.905 149.037C49.8359 148.199 49.9362 147.356 50.2001 146.557L55.2231 131.422L58.4823 121.601C58.8773 120.416 59.1104 119.184 59.1753 117.937C59.3569 114.487 58.2893 111.086 56.168 108.359C54.3032 105.961 51.7166 104.227 48.7904 103.413C45.8643 102.598 42.7538 102.747 39.9185 103.836C39.8357 103.866 39.7494 103.899 39.6666 103.932C37.6332 104.744 35.8166 106.018 34.3602 107.653C32.9038 109.287 31.8475 111.239 31.2749 113.352L27.7339 126.233L20.4297 152.787C19.6986 155.447 19.5509 158.235 19.9967 160.957C20.4426 163.68 21.4715 166.275 23.013 168.563C24.5545 170.851 26.5723 172.78 28.9281 174.216C31.284 175.652 33.9224 176.562 36.6627 176.884L57.5407 179.331L67.2022 180.465C68.3194 180.599 69.4462 180.308 70.358 179.648C71.2699 178.989 71.8999 178.011 72.1225 176.908C72.1381 176.847 72.1503 176.787 72.1589 176.725L72.391 175.293L74.3572 163.231L74.377 163.108C74.4795 162.493 74.4519 161.863 74.296 161.258C74.1401 160.654 73.8594 160.089 73.4719 159.6Z" fill="#CACACA"/>
<path d="M111.728 185.245C113.158 185.577 114.644 185.592 116.08 185.288C117.516 184.983 118.868 184.368 120.04 183.485C121.213 182.602 122.178 181.472 122.866 180.176C123.555 178.879 123.951 177.448 124.027 175.982L158.297 166.037L144.179 154.015L113.8 165.302C111.329 165.338 108.957 166.279 107.133 167.947C105.309 169.616 104.161 171.895 103.906 174.353C103.65 176.812 104.306 179.278 105.747 181.286C107.189 183.293 109.317 184.702 111.728 185.245V185.245Z" fill="#FFB6B6"/>
<path d="M175.312 143.792L159.013 106.28C157.68 103.2 155.299 100.692 152.292 99.2011C151.363 98.7436 150.387 98.3879 149.381 98.1402C149.226 98.1004 149.07 98.0639 148.914 98.034C146.781 97.5687 144.569 97.6096 142.455 98.1534C140.523 98.6499 138.717 99.5481 137.155 100.79C135.593 102.031 134.31 103.588 133.391 105.358C133.38 105.373 133.372 105.388 133.364 105.405C132.337 107.392 131.79 109.593 131.769 111.83C131.748 114.068 132.252 116.279 133.241 118.285L133.444 118.69L144.962 141.823C145.355 142.614 145.577 143.479 145.612 144.362C145.647 145.244 145.496 146.124 145.167 146.944C144.838 147.764 144.34 148.506 143.705 149.119C143.069 149.733 142.311 150.206 141.48 150.506L140.671 150.798L126.123 156.053C125.031 156.442 124.133 157.24 123.618 158.279C123.103 159.317 123.011 160.515 123.361 161.62L123.397 161.736L127.476 174.786C127.495 174.845 127.515 174.905 127.539 174.965C127.574 175.077 127.619 175.187 127.671 175.293C128.105 176.265 128.871 177.051 129.832 177.508C130.792 177.966 131.885 178.066 132.913 177.79L140.764 175.717L142.366 175.293L162.64 169.938C165.308 169.233 167.792 167.96 169.922 166.206C172.052 164.452 173.778 162.259 174.981 159.775C176.184 157.292 176.837 154.579 176.894 151.82C176.951 149.061 176.412 146.323 175.312 143.792L175.312 143.792Z" fill="#CACACA"/>
<path d="M14.8861 175.293C19.5844 181.023 24.6513 186.442 30.0547 191.513H179.908C181.351 191.515 182.735 192.09 183.756 193.111C184.776 194.132 185.35 195.516 185.352 196.96L185.567 234.933C194.786 230.698 203.419 225.289 211.253 218.843C213.428 217.056 215.535 215.191 217.576 213.249C218.912 211.983 220.216 210.685 221.488 209.357C231.025 199.422 238.747 187.893 244.305 175.293H14.8861Z" fill="#3F3D56"/>
<path d="M221.488 209.357C220.218 210.686 218.914 211.984 217.576 213.249H185.677V209.357H221.488Z" fill="white"/>
<path d="M152.067 84.8614C151.909 84.5705 151.676 84.3276 151.392 84.1584C151.108 83.9892 150.783 83.8998 150.452 83.8999H41.7554C41.2681 83.9012 40.8011 84.0956 40.4568 84.4405C40.1125 84.7854 39.919 85.2527 39.9186 85.74V150.798H152.292V85.74C152.294 85.4326 152.217 85.13 152.067 84.8614Z" fill="#3F3D56"/>
<path d="M39.8201 149.036V157.065C39.8201 157.397 39.8856 157.727 40.013 158.034C40.1403 158.342 40.327 158.621 40.5624 158.857C40.7977 159.092 41.0771 159.279 41.3846 159.406C41.692 159.533 42.0216 159.599 42.3544 159.599H83.8308V175.443H83.2798C83.2366 175.443 83.1938 175.451 83.1539 175.468C83.1139 175.484 83.0776 175.509 83.047 175.539C83.0165 175.57 82.9922 175.606 82.9757 175.646C82.9591 175.686 82.9506 175.729 82.9506 175.772V176.874C82.9506 176.917 82.9591 176.96 82.9757 177C82.9922 177.04 83.0165 177.076 83.047 177.107C83.0776 177.137 83.1139 177.162 83.1538 177.178C83.1938 177.195 83.2366 177.203 83.2798 177.203H109.028C109.071 177.203 109.114 177.195 109.154 177.178C109.194 177.162 109.23 177.137 109.261 177.107C109.291 177.076 109.315 177.04 109.332 177C109.349 176.96 109.357 176.917 109.357 176.874V175.772C109.357 175.729 109.349 175.686 109.332 175.646C109.315 175.606 109.291 175.57 109.261 175.539C109.23 175.509 109.194 175.484 109.154 175.468C109.114 175.451 109.071 175.443 109.028 175.443H108.477V159.599H149.953C150.286 159.599 150.616 159.533 150.923 159.406C151.231 159.279 151.51 159.092 151.745 158.857C151.981 158.621 152.167 158.342 152.295 158.034C152.422 157.727 152.488 157.397 152.488 157.065V149.036H39.8201Z" fill="#3F3D56"/>
<path d="M94.7925 125.994C100.525 125.994 105.172 121.347 105.172 115.614C105.172 109.882 100.525 105.235 94.7925 105.235C89.0599 105.235 84.4127 109.882 84.4127 115.614C84.4127 121.347 89.0599 125.994 94.7925 125.994Z" fill="#282944"/>
<path d="M121.239 57.3588H119.581C119.581 44.826 107.178 36.6134 94.6648 36.6068C92.8448 36.6015 91.0288 36.7781 89.2439 37.134C87.2347 37.5352 85.1492 38.0159 83.1002 38.6426C75.0202 41.1193 67.527 45.9069 67.527 57.3588C67.5253 59.5829 67.8083 61.798 68.3692 63.9501L66.7645 64.3679C66.1693 62.0791 65.8684 59.7237 65.8693 57.3588C65.8693 47.3525 69.9772 40.4794 77.0725 36.3813C80.8025 34.2262 85.3548 32.837 90.5701 32.1607C92.7404 31.8719 94.9345 31.8053 97.1183 31.9617C111.508 32.9962 121.239 44.0303 121.239 57.3588Z" fill="#282944"/>
<path d="M124.001 58.2772L123.348 53.4498C123.187 52.2307 122.599 51.1079 121.69 50.2801C121.106 49.7405 120.407 49.3407 119.646 49.111C118.885 48.8812 118.082 48.8275 117.297 48.9539L116.259 49.0965C115.975 49.1339 115.701 49.2273 115.454 49.3713C115.206 49.5153 114.99 49.707 114.817 49.9353C114.642 50.1629 114.515 50.4228 114.441 50.6999C114.368 50.977 114.35 51.266 114.389 51.55L115.898 62.6703C115.96 63.1236 116.163 63.5458 116.478 63.8772C116.794 64.2087 117.205 64.4325 117.655 64.5171C117.788 64.5438 117.924 64.5571 118.059 64.5569C118.157 64.5569 118.254 64.5502 118.351 64.537L119.512 64.3812C120.219 64.2873 120.9 64.0497 121.512 63.6831C122.125 63.3165 122.656 62.8286 123.072 62.2493C123.162 62.1233 123.248 61.994 123.328 61.8613C123.949 60.7765 124.186 59.5136 124.001 58.2772Z" fill="#282944"/>
<path d="M115.589 49.2988C115.285 49.4467 115.02 49.6649 114.817 49.9354C114.642 50.163 114.515 50.4228 114.441 50.7C114.368 50.9771 114.35 51.266 114.389 51.5501L115.898 62.6704C115.96 63.1237 116.163 63.5459 116.478 63.8773C116.794 64.2088 117.205 64.4326 117.655 64.5172L115.589 49.2988Z" fill="white"/>
<path d="M124.001 58.2771L123.348 53.4497C123.187 52.2306 122.599 51.1078 121.69 50.28L123.192 61.344C123.214 61.5216 123.26 61.6955 123.328 61.8612C123.949 60.7764 124.186 59.5135 124.001 58.2771Z" fill="#3F3D56"/>
<path d="M118.839 61.7555C119.292 61.694 119.52 60.6144 119.348 59.3443C119.176 58.0741 118.668 57.0944 118.215 57.1559C117.761 57.2174 117.533 58.297 117.705 59.5671C117.878 60.8373 118.385 61.8171 118.839 61.7555Z" fill="#3F3D56"/>
<path d="M117.844 55.7875C118.298 55.726 118.526 54.6464 118.353 53.3763C118.181 52.1061 117.674 51.1264 117.22 51.1879C116.766 51.2494 116.538 52.329 116.711 53.5991C116.883 54.8693 117.39 55.8491 117.844 55.7875Z" fill="#3F3D56"/>
<path d="M124.144 58.1083C124.597 58.0468 124.825 56.9672 124.653 55.6971C124.481 54.4269 123.973 53.4472 123.52 53.5087C123.066 53.5702 122.838 54.6498 123.01 55.9199C123.182 57.1901 123.69 58.1699 124.144 58.1083Z" fill="#3F3D56"/>
<path d="M94.6648 36.6068C92.8448 36.6015 91.0288 36.7781 89.2439 37.134C87.2347 37.5351 85.1492 38.0159 83.1002 38.6425C79.9007 38.4867 77.5466 37.6578 77.0725 36.3813C80.8025 34.2262 85.3548 32.837 90.5701 32.1607C92.7404 31.8719 94.9345 31.8053 97.1183 31.9617C97.3495 32.0972 97.5494 32.2802 97.7048 32.4985C97.8603 32.7167 97.9677 32.9655 98.0202 33.2283C98.176 34.3821 96.8597 35.6088 94.6648 36.6068Z" fill="#3F3D56"/>
<path d="M73.4984 68.8638L70.9454 58.2507C70.8544 57.8678 70.6522 57.5203 70.3644 57.2519C70.0765 56.9835 69.7158 56.8062 69.3274 56.7421C69.2177 56.725 69.1069 56.7162 68.9959 56.7156C68.8395 56.7161 68.6837 56.735 68.5317 56.7719L67.5437 57.0107C66.2716 57.3183 65.1734 58.1181 64.4903 59.2345C63.8072 60.3508 63.5949 61.6926 63.8999 62.9654L65.0438 67.7265C65.3049 68.8474 65.927 69.8515 66.8143 70.5845C66.958 70.7006 67.1086 70.808 67.2652 70.9062C67.8209 71.2545 68.4408 71.4879 69.0883 71.5927C69.7358 71.6975 70.3977 71.6715 71.0349 71.5162L72.0197 71.2775C72.28 71.2167 72.525 71.1027 72.7391 70.9426C73.0576 70.7105 73.2998 70.3888 73.435 70.0187C73.5702 69.6485 73.5922 69.2465 73.4984 68.8638Z" fill="#282944"/>
<path d="M68.1464 66.8891C68.5915 66.782 68.7092 65.6849 68.4093 64.4387C68.1094 63.1925 67.5055 62.269 67.0604 62.3761C66.6153 62.4832 66.4976 63.5803 66.7975 64.8265C67.0974 66.0728 67.7013 66.9962 68.1464 66.8891Z" fill="#3F3D56"/>
<path d="M64.8309 67.8837C65.276 67.7766 65.3937 66.6795 65.0938 65.4333C64.7939 64.1871 64.1899 63.2637 63.7449 63.3708C63.2998 63.4779 63.1821 64.575 63.482 65.8212C63.7819 67.0674 64.3858 67.9908 64.8309 67.8837Z" fill="#3F3D56"/>
<path d="M73.6609 68.8239L71.1079 58.2108C71.0085 57.7966 70.789 57.4208 70.477 57.1307C70.165 56.8405 69.7744 56.6488 69.354 56.5796L72.8386 71.0752C73.1828 70.8231 73.4445 70.4748 73.5909 70.0741C73.7372 69.6735 73.7616 69.2384 73.6609 68.8239Z" fill="white"/>
<path d="M64.4768 60.8633C64.4063 60.5682 64.2741 60.2913 64.0888 60.051C63.73 60.9804 63.664 61.9974 63.8999 62.9654L65.0437 67.7265C65.3049 68.8474 65.9269 69.8515 66.8142 70.5845L64.4768 60.8633Z" fill="#3F3D56"/>
</g>
<defs>
<clipPath id="clip0_764_844">
<rect width="282" height="245.626" fill="white"/>
</clipPath>
</defs>
</svg>
